<svg xmlns="http://www.w3.org/2000/svg" viewBox="0 0 40 40" role="img" aria-label="ChessSight">
  <defs>
    <clipPath id="frame">
      <rect x="0" y="0" width="40" height="40" rx="8" ry="8" />
    </clipPath>
  </defs>
  <g clip-path="url(#frame)">
    <rect width="40" height="40" fill="#f7f2ea" />
    <path d="M13 27c2-4.1 5-6.2 7.1-8.3 1.3-1.3 1.7-2.9 2-4.4 1.3.5 2.3 1.3 3 2.4-.8.5-1.5 1.3-1.9 2.3 2 0.6 3.5 2.2 4.5 4.7-1.7-.3-3.4-.2-5.1.5 0.9.8 1.6 1.5 2 2.8H13Z" fill="#17202a"/>
    <path d="M16 16.8c1.8-1.7 4.3-2.6 5.9-5 0.5 1.2 0.4 2.1 0.1 3.3" fill="none" stroke="#f7f2ea" stroke-width="1.4" stroke-linecap="round"/>
  </g>
</svg>
